M48
;DRILL file {KiCad 5.0.2+dfsg1-1+deb10u1} date mar. 14 nov. 2023 21:40:50 CET
;FORMAT={-:-/ absolute / inch / decimal}
FMAT,2
INCH,TZ
T1C0.0157
T2C0.0315
T3C0.0394
T4C0.0433
T5C0.0472
T6C0.0591
T7C0.0598
%
G90
G05
T1
X6.5945Y-3.6811
X6.6929Y-3.7402
T2
X6.4173Y-3.2677
X6.8173Y-3.2677
X6.4173Y-3.3858
X6.8173Y-3.3858
T3
X5.9646Y-3.2874
X5.9646Y-3.4843
X6.1614Y-3.2874
X6.1614Y-3.4843
T4
X6.3583Y-3.622
X6.3583Y-3.722
X6.3583Y-3.822
T5
X6.5551Y-4.1929
X6.752Y-4.1929
X6.0039Y-4.1929
X6.2008Y-4.1929
T6
X4.8819Y-3.4449
X4.8819Y-3.6417
X4.8819Y-3.8386
X4.8819Y-4.0354
X4.8819Y-4.2323
X5.6693Y-3.4449
X5.6693Y-3.6417
X5.6693Y-3.8386
X5.6693Y-4.0354
X5.6693Y-4.2323
T7
X7.1063Y-3.422
X7.1063Y-3.622
X4.5472Y-3.4252
X4.5472Y-3.6252
X4.5472Y-3.8681
X4.5472Y-4.0681
X7.1063Y-3.8551
X7.1063Y-4.0551
X7.1063Y-4.2882
X7.1063Y-4.4882
T0
M30
