M48
;DRILL file {KiCad 5.0.2+dfsg1-1+deb10u1} date lun. 13 nov. 2023 12:09:03 CET
;FORMAT={-:-/ absolute / inch / decimal}
FMAT,2
INCH,TZ
T1C0.0157
T2C0.0315
T3C0.0354
T4C0.0394
T5C0.0433
T6C0.0472
T7C0.0591
T8C0.0598
%
G90
G05
T1
X6.5945Y-3.6811
X6.5945Y-3.7811
T2
X6.4173Y-3.2677
X6.8173Y-3.2677
X6.4173Y-3.3858
X6.8173Y-3.3858
T3
X7.0079Y-3.2874
X7.0079Y-3.3874
T4
X5.9646Y-3.2874
X5.9646Y-3.4843
X6.1614Y-3.2874
X6.1614Y-3.4843
T5
X6.3583Y-3.622
X6.3583Y-3.722
X6.3583Y-3.822
T6
X6.0039Y-4.1929
X6.2008Y-4.1929
X6.5551Y-4.1929
X6.752Y-4.1929
T7
X4.8819Y-3.4449
X4.8819Y-3.6417
X4.8819Y-3.8386
X4.8819Y-4.0354
X4.8819Y-4.2323
X5.6693Y-3.4449
X5.6693Y-3.6417
X5.6693Y-3.8386
X5.6693Y-4.0354
X5.6693Y-4.2323
T8
X6.9882Y-4.5638
X6.9882Y-4.7638
X4.5472Y-3.4252
X4.5472Y-3.6252
X4.5472Y-3.8681
X4.5472Y-4.0681
X6.9882Y-3.6386
X6.9882Y-3.8386
T0
M30
