G04 #@! TF.GenerationSoftware,KiCad,Pcbnew,5.0.2+dfsg1-1+deb10u1*
G04 #@! TF.CreationDate,2023-11-14T21:39:22+01:00*
G04 #@! TF.ProjectId,AlimentationSecteur2024v1,416c696d-656e-4746-9174-696f6e536563,rev?*
G04 #@! TF.SameCoordinates,Original*
G04 #@! TF.FileFunction,Copper,L1,Top*
G04 #@! TF.FilePolarity,Positive*
%FSLAX46Y46*%
G04 Gerber Fmt 4.6, Leading zero omitted, Abs format (unit mm)*
G04 Created by KiCad (PCBNEW 5.0.2+dfsg1-1+deb10u1) date mar. 14 nov. 2023 21:39:22 CET*
%MOMM*%
%LPD*%
G01*
G04 APERTURE LIST*
G04 #@! TA.AperFunction,ComponentPad*
%ADD10C,3.000000*%
G04 #@! TD*
G04 #@! TA.AperFunction,ComponentPad*
%ADD11R,3.000000X3.000000*%
G04 #@! TD*
G04 #@! TA.AperFunction,ComponentPad*
%ADD12R,2.400000X2.400000*%
G04 #@! TD*
G04 #@! TA.AperFunction,ComponentPad*
%ADD13C,2.400000*%
G04 #@! TD*
G04 #@! TA.AperFunction,ComponentPad*
%ADD14R,2.000000X1.905000*%
G04 #@! TD*
G04 #@! TA.AperFunction,ComponentPad*
%ADD15O,2.000000X1.905000*%
G04 #@! TD*
G04 #@! TA.AperFunction,ComponentPad*
%ADD16C,1.600000*%
G04 #@! TD*
G04 #@! TA.AperFunction,ComponentPad*
%ADD17O,1.600000X1.600000*%
G04 #@! TD*
G04 #@! TA.AperFunction,ComponentPad*
%ADD18O,2.000000X2.000000*%
G04 #@! TD*
G04 #@! TA.AperFunction,ComponentPad*
%ADD19R,2.000000X2.000000*%
G04 #@! TD*
G04 #@! TA.AperFunction,ViaPad*
%ADD20C,0.800000*%
G04 #@! TD*
G04 #@! TA.AperFunction,Conductor*
%ADD21C,1.000000*%
G04 #@! TD*
G04 APERTURE END LIST*
D10*
G04 #@! TO.P,AC 5v,2*
G04 #@! TO.N,N/C*
X180500000Y-108920000D03*
D11*
G04 #@! TO.P,AC 5v,1*
X180500000Y-114000000D03*
G04 #@! TD*
D10*
G04 #@! TO.P,+LED Output-,2*
G04 #@! TO.N,N/C*
X180500000Y-86920000D03*
D11*
G04 #@! TO.P,+LED Output-,1*
X180500000Y-92000000D03*
G04 #@! TD*
D10*
G04 #@! TO.P,Inter 230v ,2*
G04 #@! TO.N,N/C*
X115500000Y-103330000D03*
D11*
G04 #@! TO.P,Inter 230v ,1*
X115500000Y-98250000D03*
G04 #@! TD*
D10*
G04 #@! TO.P,230v / 12v,1*
G04 #@! TO.N,N/C*
X124000000Y-107500000D03*
G04 #@! TO.P,230v / 12v,2*
X124000000Y-102500000D03*
G04 #@! TO.P,230v / 12v,3*
X124000000Y-97500000D03*
G04 #@! TO.P,230v / 12v,4*
X124000000Y-92500000D03*
G04 #@! TO.P,230v / 12v,5*
X124000000Y-87500000D03*
G04 #@! TO.P,230v / 12v,6*
X144000000Y-87500000D03*
G04 #@! TO.P,230v / 12v,7*
X144000000Y-92500000D03*
G04 #@! TO.P,230v / 12v,8*
X144000000Y-97500000D03*
G04 #@! TO.P,230v / 12v,9*
X144000000Y-102500000D03*
G04 #@! TO.P,230v / 12v,10*
X144000000Y-107500000D03*
G04 #@! TD*
D12*
G04 #@! TO.P,1000uF,1*
G04 #@! TO.N,N/C*
X152500000Y-106500000D03*
D13*
G04 #@! TO.P,1000uF,2*
X157500000Y-106500000D03*
G04 #@! TD*
D14*
G04 #@! TO.P,RIT 7805,1*
G04 #@! TO.N,N/C*
X161500000Y-92000000D03*
D15*
G04 #@! TO.P,RIT 7805,2*
X161500000Y-94540000D03*
G04 #@! TO.P,RIT 7805,3*
X161500000Y-97080000D03*
G04 #@! TD*
D16*
G04 #@! TO.P,1K,1*
G04 #@! TO.N,N/C*
X163000000Y-83000000D03*
D17*
G04 #@! TO.P,1K,2*
X173160000Y-83000000D03*
G04 #@! TD*
D16*
G04 #@! TO.P,1K,1*
G04 #@! TO.N,N/C*
X163000000Y-86000000D03*
D17*
G04 #@! TO.P,1K,2*
X173160000Y-86000000D03*
G04 #@! TD*
D13*
G04 #@! TO.P,1000uF,2*
G04 #@! TO.N,N/C*
X166500000Y-106500000D03*
D12*
G04 #@! TO.P,1000uF,1*
X171500000Y-106500000D03*
G04 #@! TD*
D11*
G04 #@! TO.P,Secteur 230v ,1*
G04 #@! TO.N,N/C*
X115500000Y-87000000D03*
D10*
G04 #@! TO.P,Secteur 230v ,2*
X115500000Y-92080000D03*
G04 #@! TD*
D18*
G04 #@! TO.P,B40R,4*
G04 #@! TO.N,N/C*
X156500000Y-83500000D03*
G04 #@! TO.P,B40R,2*
X151500000Y-88500000D03*
G04 #@! TO.P,B40R,3*
X156500000Y-88500000D03*
D19*
G04 #@! TO.P,B40R,1*
X151500000Y-83500000D03*
G04 #@! TD*
D11*
G04 #@! TO.P,DC 0v /+5v,1*
G04 #@! TO.N,N/C*
X180500000Y-103000000D03*
D10*
G04 #@! TO.P,DC 0v /+5v,2*
X180500000Y-97920000D03*
G04 #@! TD*
D20*
G04 #@! TO.N,*
X167500000Y-93500000D03*
X170000000Y-95000000D03*
G04 #@! TD*
D21*
G04 #@! TO.N,*
X167500000Y-93500000D02*
X174000000Y-93500000D01*
X178750000Y-103000000D02*
X180500000Y-103000000D01*
X170000000Y-95000000D02*
X170750000Y-95000000D01*
X170750000Y-95000000D02*
X178750000Y-103000000D01*
X176080000Y-93500000D02*
X180500000Y-97920000D01*
X174000000Y-93500000D02*
X176080000Y-93500000D01*
X138500000Y-102500000D02*
X144000000Y-102500000D01*
X136500000Y-113000000D02*
X136500000Y-104500000D01*
X177580000Y-108920000D02*
X168000000Y-118500000D01*
X136500000Y-104500000D02*
X138500000Y-102500000D01*
X180500000Y-108920000D02*
X177580000Y-108920000D01*
X142000000Y-118500000D02*
X136500000Y-113000000D01*
X168000000Y-118500000D02*
X142000000Y-118500000D01*
X141878680Y-92500000D02*
X134000000Y-100378680D01*
X144000000Y-92500000D02*
X141878680Y-92500000D01*
X134000000Y-100378680D02*
X134000000Y-114000000D01*
X134000000Y-114000000D02*
X140500000Y-120500000D01*
X140500000Y-120500000D02*
X170000000Y-120500000D01*
X176500000Y-114000000D02*
X180500000Y-114000000D01*
X170000000Y-120500000D02*
X176500000Y-114000000D01*
G04 #@! TD*
M02*
