G04 #@! TF.GenerationSoftware,KiCad,Pcbnew,5.0.2+dfsg1-1+deb10u1*
G04 #@! TF.CreationDate,2023-11-13T12:08:50+01:00*
G04 #@! TF.ProjectId,AlimentationSecteur2024v1,416c696d-656e-4746-9174-696f6e536563,rev?*
G04 #@! TF.SameCoordinates,Original*
G04 #@! TF.FileFunction,Copper,L2,Bot*
G04 #@! TF.FilePolarity,Positive*
%FSLAX46Y46*%
G04 Gerber Fmt 4.6, Leading zero omitted, Abs format (unit mm)*
G04 Created by KiCad (PCBNEW 5.0.2+dfsg1-1+deb10u1) date lun. 13 nov. 2023 12:08:50 CET*
%MOMM*%
%LPD*%
G01*
G04 APERTURE LIST*
G04 #@! TA.AperFunction,ComponentPad*
%ADD10C,3.000000*%
G04 #@! TD*
G04 #@! TA.AperFunction,ComponentPad*
%ADD11R,3.000000X3.000000*%
G04 #@! TD*
G04 #@! TA.AperFunction,ComponentPad*
%ADD12R,2.400000X2.400000*%
G04 #@! TD*
G04 #@! TA.AperFunction,ComponentPad*
%ADD13C,2.400000*%
G04 #@! TD*
G04 #@! TA.AperFunction,ComponentPad*
%ADD14R,2.000000X1.905000*%
G04 #@! TD*
G04 #@! TA.AperFunction,ComponentPad*
%ADD15O,2.000000X1.905000*%
G04 #@! TD*
G04 #@! TA.AperFunction,ComponentPad*
%ADD16C,1.600000*%
G04 #@! TD*
G04 #@! TA.AperFunction,ComponentPad*
%ADD17O,1.600000X1.600000*%
G04 #@! TD*
G04 #@! TA.AperFunction,ComponentPad*
%ADD18R,1.800000X1.800000*%
G04 #@! TD*
G04 #@! TA.AperFunction,ComponentPad*
%ADD19C,1.800000*%
G04 #@! TD*
G04 #@! TA.AperFunction,ComponentPad*
%ADD20O,2.000000X2.000000*%
G04 #@! TD*
G04 #@! TA.AperFunction,ComponentPad*
%ADD21R,2.000000X2.000000*%
G04 #@! TD*
G04 #@! TA.AperFunction,ViaPad*
%ADD22C,0.800000*%
G04 #@! TD*
G04 #@! TA.AperFunction,Conductor*
%ADD23C,1.000000*%
G04 #@! TD*
G04 #@! TA.AperFunction,Conductor*
%ADD24C,0.250000*%
G04 #@! TD*
G04 #@! TA.AperFunction,Conductor*
%ADD25C,3.000000*%
G04 #@! TD*
G04 #@! TA.AperFunction,Conductor*
%ADD26C,0.750000*%
G04 #@! TD*
G04 APERTURE END LIST*
D10*
G04 #@! TO.P,+ LED Output -,2*
G04 #@! TO.N,N/C*
X177500000Y-115920000D03*
D11*
G04 #@! TO.P,+ LED Output -,1*
X177500000Y-121000000D03*
G04 #@! TD*
D10*
G04 #@! TO.P,Inter 230v ,2*
G04 #@! TO.N,N/C*
X115500000Y-103330000D03*
D11*
G04 #@! TO.P,Inter 230v ,1*
X115500000Y-98250000D03*
G04 #@! TD*
D10*
G04 #@! TO.P,230v / 12v,1*
G04 #@! TO.N,N/C*
X124000000Y-107500000D03*
G04 #@! TO.P,230v / 12v,2*
X124000000Y-102500000D03*
G04 #@! TO.P,230v / 12v,3*
X124000000Y-97500000D03*
G04 #@! TO.P,230v / 12v,4*
X124000000Y-92500000D03*
G04 #@! TO.P,230v / 12v,5*
X124000000Y-87500000D03*
G04 #@! TO.P,230v / 12v,6*
X144000000Y-87500000D03*
G04 #@! TO.P,230v / 12v,7*
X144000000Y-92500000D03*
G04 #@! TO.P,230v / 12v,8*
X144000000Y-97500000D03*
G04 #@! TO.P,230v / 12v,9*
X144000000Y-102500000D03*
G04 #@! TO.P,230v / 12v,10*
X144000000Y-107500000D03*
G04 #@! TD*
D12*
G04 #@! TO.P,1000uF,1*
G04 #@! TO.N,N/C*
X152500000Y-106500000D03*
D13*
G04 #@! TO.P,1000uF,2*
X157500000Y-106500000D03*
G04 #@! TD*
D14*
G04 #@! TO.P,RIT 7805,1*
G04 #@! TO.N,N/C*
X161500000Y-92000000D03*
D15*
G04 #@! TO.P,RIT 7805,2*
X161500000Y-94540000D03*
G04 #@! TO.P,RIT 7805,3*
X161500000Y-97080000D03*
G04 #@! TD*
D16*
G04 #@! TO.P,1K,1*
G04 #@! TO.N,N/C*
X163000000Y-83000000D03*
D17*
G04 #@! TO.P,1K,2*
X173160000Y-83000000D03*
G04 #@! TD*
D16*
G04 #@! TO.P,1K,1*
G04 #@! TO.N,N/C*
X163000000Y-86000000D03*
D17*
G04 #@! TO.P,1K,2*
X173160000Y-86000000D03*
G04 #@! TD*
D13*
G04 #@! TO.P,1000uF,2*
G04 #@! TO.N,N/C*
X166500000Y-106500000D03*
D12*
G04 #@! TO.P,1000uF,1*
X171500000Y-106500000D03*
G04 #@! TD*
D11*
G04 #@! TO.P,Secteur 230v ,1*
G04 #@! TO.N,N/C*
X115500000Y-87000000D03*
D10*
G04 #@! TO.P,Secteur 230v ,2*
X115500000Y-92080000D03*
G04 #@! TD*
D18*
G04 #@! TO.P,LED,1*
G04 #@! TO.N,N/C*
X178000000Y-83500000D03*
D19*
G04 #@! TO.P,LED,2*
X178000000Y-86040000D03*
G04 #@! TD*
D20*
G04 #@! TO.P,B40R,4*
G04 #@! TO.N,N/C*
X156500000Y-83500000D03*
G04 #@! TO.P,B40R,2*
X151500000Y-88500000D03*
G04 #@! TO.P,B40R,3*
X156500000Y-88500000D03*
D21*
G04 #@! TO.P,B40R,1*
X151500000Y-83500000D03*
G04 #@! TD*
D11*
G04 #@! TO.P,0v  / +5v,1*
G04 #@! TO.N,N/C*
X177500000Y-97500000D03*
D10*
G04 #@! TO.P,0v  / +5v,2*
X177500000Y-92420000D03*
G04 #@! TD*
D22*
G04 #@! TO.N,*
X167500000Y-93500000D03*
X167500000Y-96040000D03*
G04 #@! TD*
D23*
G04 #@! TO.N,*
X152500000Y-106500000D02*
X152500000Y-109000000D01*
X154000000Y-86000000D02*
X148500000Y-86000000D01*
D24*
X123500000Y-87000000D02*
X124000000Y-87500000D01*
D25*
X115500000Y-87000000D02*
X123500000Y-87000000D01*
D24*
X115500000Y-87000000D02*
X117250000Y-87000000D01*
X123340000Y-108160000D02*
X124000000Y-107500000D01*
D25*
X115500000Y-108160000D02*
X123340000Y-108160000D01*
X115500000Y-92080000D02*
X115500000Y-98000000D01*
D23*
X163000000Y-103000000D02*
X166500000Y-106500000D01*
X156500000Y-103000000D02*
X163000000Y-103000000D01*
X156500000Y-103000000D02*
X156500000Y-105500000D01*
X161500000Y-90500000D02*
X161500000Y-92000000D01*
X151500000Y-83500000D02*
X151500000Y-82250000D01*
X158000000Y-81500000D02*
X160000000Y-83500000D01*
X152250000Y-81500000D02*
X158000000Y-81500000D01*
X151500000Y-82250000D02*
X152250000Y-81500000D01*
X160000000Y-83500000D02*
X160000000Y-89000000D01*
X160000000Y-89000000D02*
X161500000Y-90500000D01*
X159040000Y-94540000D02*
X156500000Y-92000000D01*
X156500000Y-88500000D02*
X156500000Y-92000000D01*
X161500000Y-94540000D02*
X159040000Y-94540000D01*
X156500000Y-92000000D02*
X156500000Y-103000000D01*
D24*
X171500000Y-103500000D02*
X171500000Y-106500000D01*
D23*
X170500000Y-102500000D02*
X171500000Y-103500000D01*
X165000000Y-102500000D02*
X170500000Y-102500000D01*
X161500000Y-97080000D02*
X161500000Y-99000000D01*
X161500000Y-99000000D02*
X165000000Y-102500000D01*
X163000000Y-86000000D02*
X163000000Y-83000000D01*
X163000000Y-86000000D02*
X163000000Y-87131370D01*
D24*
X177500000Y-83000000D02*
X178000000Y-83500000D01*
D23*
X173160000Y-83000000D02*
X177500000Y-83000000D01*
X178000000Y-86040000D02*
X173040000Y-91000000D01*
X163460000Y-94540000D02*
X161500000Y-94540000D01*
X164500000Y-89000000D02*
X164500000Y-93500000D01*
X164500000Y-93500000D02*
X163460000Y-94540000D01*
X168960000Y-96040000D02*
X167500000Y-96040000D01*
X170000000Y-95000000D02*
X168960000Y-96040000D01*
X170000000Y-90000000D02*
X170000000Y-95000000D01*
X171500000Y-102500000D02*
X171500000Y-106500000D01*
X167500000Y-93500000D02*
X167500000Y-93500000D01*
X165000000Y-97500000D02*
X169000000Y-101500000D01*
X169000000Y-101500000D02*
X170500000Y-101500000D01*
X165000000Y-94950000D02*
X165000000Y-97500000D01*
X166450000Y-93500000D02*
X165000000Y-94950000D01*
X167500000Y-93500000D02*
X166450000Y-93500000D01*
X167500000Y-96040000D02*
X167500000Y-96040000D01*
X151500000Y-95000000D02*
X151500000Y-88500000D01*
X150000000Y-96500000D02*
X151500000Y-95000000D01*
X163000000Y-87500000D02*
X164500000Y-89000000D01*
D24*
X163000000Y-87131370D02*
X163000000Y-87500000D01*
D23*
X150000000Y-111500000D02*
X142500000Y-111500000D01*
X142500000Y-111500000D02*
X139500000Y-108500000D01*
X139500000Y-108500000D02*
X139500000Y-85000000D01*
X141000000Y-83500000D02*
X151500000Y-83500000D01*
X139500000Y-85000000D02*
X141000000Y-83500000D01*
X147000000Y-91000000D02*
X145500000Y-92500000D01*
X147000000Y-87500000D02*
X147000000Y-91000000D01*
X156500000Y-83500000D02*
X154000000Y-86000000D01*
D24*
X145500000Y-92500000D02*
X144000000Y-92500000D01*
D23*
X148500000Y-86000000D02*
X147000000Y-87500000D01*
X144000000Y-102500000D02*
X150000000Y-96500000D01*
X156500000Y-105500000D02*
X157500000Y-106500000D01*
X152500000Y-109000000D02*
X150000000Y-111500000D01*
X173040000Y-99960000D02*
X171000000Y-102000000D01*
X173040000Y-91000000D02*
X173040000Y-99960000D01*
X170500000Y-101500000D02*
X171000000Y-102000000D01*
X171000000Y-102000000D02*
X171500000Y-102500000D01*
X173160000Y-86000000D02*
X171000000Y-86000000D01*
X170000000Y-87000000D02*
X170000000Y-90000000D01*
X171000000Y-86000000D02*
X170000000Y-87000000D01*
D25*
X115500000Y-108160000D02*
X115500000Y-103330000D01*
D26*
X178000000Y-86040000D02*
X179460000Y-86040000D01*
X179460000Y-86040000D02*
X180920000Y-87500000D01*
X180920000Y-87500000D02*
X180920000Y-106580000D01*
X175750000Y-121000000D02*
X174500000Y-119750000D01*
D24*
X177500000Y-121000000D02*
X175750000Y-121000000D01*
D26*
X180920000Y-106580000D02*
X174500000Y-113000000D01*
X174500000Y-119750000D02*
X174500000Y-113000000D01*
G04 #@! TD*
M02*
